<?xml version="1.0" encoding="UTF-8"?>
<!DOCTYPE svg PUBLIC "-//W3C//DTD SVG 1.1//EN" "http://www.w3.org/Graphics/SVG/1.1/DTD/svg11.dtd">
<!-- Creator: CorelDRAW 2021.5 -->
<svg xmlns="http://www.w3.org/2000/svg" xml:space="preserve" width="2.96439in" height="0.683898in" version="1.1" style="shape-rendering:geometricPrecision; text-rendering:geometricPrecision; image-rendering:optimizeQuality; fill-rule:evenodd; clip-rule:evenodd"
viewBox="0 0 4235.57 977.17"
 xmlns:xlink="http://www.w3.org/1999/xlink"
 xmlns:xodm="http://www.corel.com/coreldraw/odm/2003">
 <defs>
  <style type="text/css">
   <![CDATA[
    .fil0 {fill:#02AFD9}
    .fil2 {fill:#1D1819}
    .fil1 {fill:#FEFEFE}
   ]]>
  </style>
 </defs>
 <g id="Layer_x0020_1">
  <metadata id="CorelCorpID_0Corel-Layer"/>
  <g id="_1443026684752">
   <circle class="fil0" cx="488.58" cy="488.58" r="488.58"/>
   <path class="fil1" d="M206.21 598.19c5.57,79.88 55.74,141.18 148.62,146.76 89.17,3.71 176.48,3.71 265.65,0 81.74,-5.57 143.05,-66.88 148.62,-146.76 3.71,-40.87 5.57,-81.74 3.71,-122.61l0 0 0 0c-20.43,-111.46 -113.32,-115.18 -120.75,-115.18l-1.86 0 0 0 0 0 -312.1 0c-11.15,0 -20.44,-9.29 -20.44,-20.44l0 0c0,-11.14 9.29,-18.57 20.44,-18.57l313.95 0c-3.71,-74.31 -85.45,-89.17 -124.46,-91.03l-20.44 0 0 0c-50.16,-1.86 -102.17,0 -152.33,3.71 -94.75,7.43 -143.05,65.02 -148.62,146.76 -5.57,72.45 -5.57,144.9 0,217.36zm470 -42.73l0 27.87c0,9.29 -7.43,16.72 -18.57,16.72l0 0c-9.29,0 -16.72,-7.43 -16.72,-16.72l0 -27.87c-9.29,-5.57 -14.86,-13.01 -14.86,-24.15 0,-14.86 14.86,-27.87 31.58,-27.87 16.72,0 31.58,13.01 31.58,27.87 0,11.14 -5.57,18.57 -13.01,24.15z"/>
  </g>
  <path class="fil2" d="M3440.47 444l0 89.17c0,0 -31.58,59.45 -135.61,72.45 -104.03,14.86 -104.03,-50.15 -96.6,-66.87 7.43,-16.72 31.58,-39.02 118.9,-53.87 91.03,-14.86 113.32,-40.87 113.32,-40.87zm122.61 -85.45l0 345.54 -113.32 0 0 -55.74c-37.15,33.44 -89.17,65.02 -161.62,68.74 -226.64,5.57 -313.96,-245.22 -39.02,-319.53 65.02,-18.58 128.18,-13.01 161.63,-29.72 22.29,-13.01 27.87,-33.44 13.01,-52.02 -55.74,-74.31 -189.49,-44.59 -226.64,57.59l-113.32 -27.87c29.72,-113.32 120.75,-163.48 230.36,-174.63 117.04,-11.15 248.94,52.02 248.94,187.63zm-2145.65 -61.3c-81.74,0 -148.61,66.88 -148.61,150.48 0,81.74 66.87,148.61 148.61,148.61 81.74,0 148.62,-66.88 148.62,-148.61 0,-83.6 -66.88,-150.48 -148.62,-150.48zm293.52 -109.61l-144.9 0 0 55.74c-44.59,-39.02 -104.03,-63.17 -170.91,-63.17 -144.9,0 -263.8,120.75 -263.8,269.37 0,150.48 118.9,271.23 263.8,271.23 66.88,0 126.33,-24.15 170.91,-63.17l0 50.16c0,79.88 -57.59,143.05 -137.47,143.05 -66.88,0 -120.75,-13.01 -165.34,-65.02l-92.88 83.6c76.17,81.74 152.33,107.75 260.08,107.75 156.05,0 280.52,-105.89 280.52,-284.23l0 -78.02 0 -427.28zm2524.63 -9.29l-152.33 0 -152.33 332.53 -174.63 -332.53 -154.19 0 252.65 473.72 -133.76 274.94c0,0 154.19,0 154.19,0 0,0 360.4,-748.66 360.4,-748.66zm-1499.16 118.9c83.6,0 150.48,66.88 150.48,150.48 0,81.74 -66.88,148.61 -150.48,148.61 -81.74,0 -148.62,-66.88 -148.62,-148.61 0,-83.6 66.88,-150.48 148.62,-150.48zm-291.66 -109.61l143.05 0 0 55.74c46.44,-39.02 105.89,-63.17 170.91,-63.17 144.9,0 263.8,120.75 263.8,269.37 0,150.48 -118.9,271.23 -263.8,271.23 -65.02,0 -124.47,-24.15 -170.91,-63.17l0 269.37 -143.05 0 0 -739.38zm-382.69 105.89c91.03,0 163.48,70.6 163.48,156.05 0,87.31 -72.45,157.91 -163.48,157.91 -89.17,0 -161.63,-70.6 -161.63,-157.91 0,-85.45 72.45,-156.05 161.63,-156.05zm0 -124.46c159.76,0 289.8,126.32 289.8,280.52 0,156.05 -130.04,282.37 -289.8,282.37 -159.77,0 -289.81,-126.33 -289.81,-282.37 0,-154.19 130.04,-280.52 289.81,-280.52z"/>
 </g>
</svg>
