<?xml version="1.0" encoding="UTF-8"?>
<!DOCTYPE svg PUBLIC "-//W3C//DTD SVG 1.1//EN" "http://www.w3.org/Graphics/SVG/1.1/DTD/svg11.dtd">
<!-- Creator: CorelDRAW 2021.5 -->
<svg xmlns="http://www.w3.org/2000/svg" xml:space="preserve" width="3.74305in" height="1.63869in" version="1.1" style="shape-rendering:geometricPrecision; text-rendering:geometricPrecision; image-rendering:optimizeQuality; fill-rule:evenodd; clip-rule:evenodd"
viewBox="0 0 30995.39 13569.67"
 xmlns:xlink="http://www.w3.org/1999/xlink"
 xmlns:xodm="http://www.corel.com/coreldraw/odm/2003">
 <defs>
  <style type="text/css">
   <![CDATA[
    .fil1 {fill:#FEFEFE;fill-rule:nonzero}
    .fil0 {fill:#EC553D;fill-rule:nonzero}
   ]]>
  </style>
 </defs>
 <g id="Layer_x0020_1">
  <metadata id="CorelCorpID_0Corel-Layer"/>
  <path class="fil0" d="M9668.8 2.9l-9259.55 1234.62c0,0 -409.25,49.13 -409.25,540.11l0 28.69 0 39.74 0 50.47 0 60.8 0 70.78 0 80.36 0 89.59 0 98.46 0 106.97 0 115.05 0 122.84 0 130.21 0 137.22 0 143.9 0 150.16 0 156.06 0 161.61 0 166.79 0 171.61 0 176.02 0 180.09 0 183.77 0 187.13 0 190.07 0 192.68 0 194.89 0 196.75 0 198.25 0 199.33 0 200.11 0 200.47 0 200.47 0 200.14 0 199.39 0 198.25 0 196.85 0 194.99 0 192.77 0 190.23 0 187.26 0 183.97 0 180.29 0 176.24 0 171.81 0 167.05 0 161.87 0 156.36 0 150.46 0 144.23 0 137.55 0 130.6 0 123.2 0 115.44 0 107.39 0 98.88 0 90.05 0 80.82 0 71.27 0 61.29 0 50.99 0 40.3 0 29.24 0 17.8 0 6.03c0,0 53.79,1028.84 1232.27,1028.84 1178.51,0 10494.21,0 10494.21,0 0,0 935.4,-224.43 935.4,-1159.77 0,-935.31 0,-7258.01 0,-7258.01 0,0 18.62,-1028.9 -1215.97,-1028.9 -1234.62,0 -10120.1,0 -10120.1,0 0,0 -392.82,-65.46 -493.36,-479.31 -30.42,-163.66 35.08,-180.09 208.1,-180.09 173.02,0 9292.32,0 9292.32,0l0 -1000.74c0,0 -32.67,-537.76 -664.06,-491.08z"/>
  <path class="fil1" d="M6518.77 10108.56c-768.03,0 -1333.37,-312.81 -2167.15,-1138.12 -148.7,-147.13 -149.9,-386.91 -2.71,-535.64 147.16,-148.66 386.91,-149.93 535.68,-2.64 877.86,868.57 1285.71,1084.36 1986.87,894.1 407.58,-110.52 773.41,-630.32 794.79,-1226.11 16.59,-463.69 -310.14,-765.78 -971.23,-898.04 -1186.7,-237.37 -1886.98,-691.28 -2081.38,-1349.25 -156.68,-529.97 48.67,-1121.33 563.29,-1622.48l21.29 -19.2c1106.59,-924.97 2391.09,-235.81 2915.72,257.94 152.35,143.41 159.65,383.07 16.17,535.41 -143.12,152.31 -382.22,159.55 -534.6,16.99 -44.47,-41.34 -1038.36,-944.5 -1900.41,-238.12 -294.69,291.26 -427.28,610.01 -354.97,854.78 105.47,356.63 639.35,648.22 1503.48,821.1 1469.16,293.87 1594.21,1264.32 1579.77,1668.02 -31.53,878.87 -766.79,1863.41 -1456.9,1950.65 -158.08,20.05 -306.32,30.61 -447.72,30.61z"/>
  <path class="fil0" d="M16556.59 2102.47c-149.05,-91.38 -326.86,-173.02 -538.48,-230.75 -389.43,-110.55 -673.16,-254.88 -807.83,-437.51 -120.17,-158.7 -120.17,-365.4 24.03,-629.93 81.8,-158.7 278.91,-259.67 533.78,-278.91 264.4,-19.2 586.57,43.26 923.18,216.34 81.8,43.36 187.59,9.68 230.85,-76.94 43.23,-81.67 9.65,-187.46 -76.94,-230.72 -394.28,-201.93 -783.81,-278.87 -1105.97,-254.85 -375.05,28.85 -668.33,192.41 -812.53,456.81 -216.34,399.11 -201.97,725.97 0,1000.02 187.46,245.2 528.93,432.82 995.29,562.64 182.63,52.88 336.51,120.2 456.71,192.32 182.73,110.58 302.93,240.4 360.67,379.84 57.74,129.85 62.56,274.05 24.03,413.52 -19.2,67.29 -52.91,134.64 -91.32,201.97 0,9.58 -9.65,19.2 -19.2,33.61 -139.5,206.79 -365.5,312.55 -639.58,312.55 -302.84,0 -673.16,-120.17 -1067.41,-360.57 -57.64,-33.68 -110.52,-67.35 -158.61,-101 -81.76,-52.88 -187.59,-28.85 -240.5,48.09 -52.88,81.7 -28.85,187.52 48.09,240.4 62.56,43.26 120.2,76.94 163.56,115.41 451.86,274.05 879.82,408.63 1245.22,408.63 394.38,0 721.34,-153.78 928.13,-461.51 4.73,-9.62 14.38,-28.88 28.75,-48.09 57.74,-91.35 100.97,-192.35 129.85,-288.56 62.56,-211.55 52.91,-437.51 -38.44,-644.27 -86.59,-201.93 -250.02,-389.46 -495.35,-538.54z"/>
  <path class="fil0" d="M19205.99 1722.67c-177.91,-48.09 -384.7,-43.26 -596.22,19.2 -200.7,59.24 -403.44,170.21 -596.22,337.52l0 -1736.75c0,-91.32 -76.94,-163.43 -173.08,-163.43 -96.27,0 -173.21,72.11 -173.21,163.43l0 3572.57c0,91.32 76.94,163.46 173.21,163.46 96.14,0 173.08,-72.15 173.08,-163.46l0 -1337.09c3.1,-3.16 6.68,-5.8 9.55,-9.23 216.44,-264.43 456.81,-427.93 687.53,-500.04 149.05,-43.26 288.56,-48.09 408.76,-14.41 115.47,33.61 206.79,96.14 274.05,187.49 67.42,96.14 105.82,225.96 105.82,389.46l0 1278.99c0,96.21 76.94,173.05 173.08,173.05 96.27,0 173.11,-76.84 173.11,-173.05l0 -1278.99c0,-235.61 -62.46,-432.72 -173.11,-586.6 -115.34,-163.56 -278.91,-269.26 -466.36,-322.14z"/>
  <path class="fil0" d="M22148.5 3492.11c-158.57,153.85 -370.22,249.99 -605.87,249.99 -235.42,0 -451.89,-96.14 -605.77,-249.99 -153.88,-153.88 -250.02,-370.32 -250.02,-605.83 0,-235.61 96.14,-451.99 250.02,-605.9 158.74,-153.88 370.35,-249.96 605.77,-249.96 235.64,0 452.12,96.08 605.87,249.96 153.91,153.91 250.15,370.29 250.15,605.9 0,235.51 -96.24,451.96 -250.15,605.83zm-605.87 -1803.03c-326.86,0 -629.8,134.55 -846.14,350.89 -216.41,216.38 -350.99,514.45 -350.99,846.3 0,331.75 134.58,629.83 350.99,846.21 216.34,216.38 514.55,350.96 846.14,350.96 331.82,0 630.02,-134.58 846.37,-350.96 216.34,-216.38 351.02,-514.45 351.02,-846.21 0,-331.85 -134.68,-629.93 -351.02,-846.3 -216.34,-216.34 -514.55,-350.89 -846.37,-350.89z"/>
  <path class="fil0" d="M25062.33 3492.11c-158.61,153.85 -370.22,249.99 -605.9,249.99 -235.42,0 -451.86,-96.14 -605.74,-249.99 -153.91,-153.88 -250.05,-370.32 -250.05,-605.83 0,-235.61 96.14,-451.99 250.05,-605.9 158.7,-153.88 370.32,-249.96 605.74,-249.96 235.68,0 451.99,96.08 605.9,249.96 153.88,153.91 250.15,370.29 250.15,605.9 0,235.51 -96.27,451.96 -250.15,605.83zm-601.07 -1803.03c-331.69,0 -629.8,134.55 -846.11,350.89 -14.51,9.65 -24.06,24.03 -38.54,38.5l0 -216.44c0,-96.14 -76.94,-172.95 -173.08,-172.95 -96.17,0 -173.11,76.81 -173.11,172.95l0 3404.28c0,96.14 76.94,173.08 173.11,173.08 96.14,0 173.08,-76.94 173.08,-173.08l0 -1572.34c14.48,9.62 24.03,24.03 38.54,38.5 216.31,216.38 514.42,350.96 846.11,350.96 331.82,0 629.93,-134.58 846.37,-350.96 216.34,-216.38 351.02,-514.45 351.02,-846.21 0,-331.85 -134.68,-629.93 -351.02,-846.3 -216.44,-216.34 -514.55,-350.89 -846.37,-350.89z"/>
  <path class="fil0" d="M26538.5 2621.78c43.23,-144.26 124.99,-269.26 225.99,-370.22 139.5,-134.61 322.14,-216.41 519.28,-216.41 197.11,0 379.87,81.8 519.28,216.41 100.97,100.97 177.91,225.96 230.82,370.22l-1495.37 0zm1505.02 -615.39c-197.24,-202.1 -466.46,-317.31 -759.75,-317.31 -293.28,0 -567.36,110.52 -759.65,317.31 -413.58,447.1 -408.76,927.94 -245.33,1413.54 72.21,221.17 225.99,379.91 403.93,495.28 177.91,115.41 394.35,173.08 639.45,168.22 240.5,-4.76 509.72,-62.46 798.28,-182.67 86.49,-38.44 129.75,-139.44 91.32,-225.96 -38.4,-86.52 -139.37,-129.85 -225.99,-91.38 -250.02,105.79 -476.01,158.67 -668.43,158.67 -177.81,0 -331.69,-38.5 -451.89,-115.38 -115.34,-76.94 -206.79,-187.56 -269.22,-336.58 -33.71,-96.14 -62.56,-201.93 -76.94,-317.34l1591.51 0c86.59,0 370.22,19.2 221.17,-466.4 -57.64,-173.08 -125.03,-336.58 -288.46,-500.01z"/>
  <path class="fil0" d="M29163.73 2621.78c43.36,-144.26 124.99,-269.26 225.99,-370.22 139.5,-134.61 322.27,-216.41 519.38,-216.41 197.01,0 379.78,81.8 519.18,216.41 100.97,100.97 177.91,225.96 230.82,370.22l-1495.37 0zm1831.65 180.09l0 -126.14c-5.93,-48.22 -18.09,-104.19 -38.08,-169.33 -57.74,-173.08 -124.99,-336.58 -288.56,-500.01 -197.11,-202.1 -466.46,-317.31 -759.65,-317.31 -293.28,0 -567.46,110.52 -759.75,317.31 -413.58,447.1 -408.76,927.94 -245.2,1413.54 72.08,221.17 225.99,379.91 403.9,495.28 177.94,115.41 394.25,173.08 639.48,168.22 240.37,-4.76 509.59,-62.46 798.15,-182.67 86.62,-38.44 129.85,-139.44 91.32,-225.96 -38.4,-86.52 -139.37,-129.85 -225.99,-91.38 -250.02,105.79 -476.01,158.67 -668.2,158.67 -177.94,0 -331.82,-38.5 -452.12,-115.38 -115.34,-76.94 -206.66,-187.56 -269.22,-336.58 -33.71,-96.14 -62.46,-201.93 -76.94,-317.34l1591.51 0c62.95,0 230.04,10.07 259.35,-170.93z"/>
  <path class="fil0" d="M17446.55 8547.6l-1796.8 0 0 -2610.01 1621.54 0c28.17,0 55.55,1.4 83.62,4.56 246.57,27.48 1325.25,214.16 1325.25,1370.54 0,1234.91 -1233.61,1234.91 -1233.61,1234.91zm-317.18 -3606.25l-2489.78 0 0 6659.45 1010.16 0 0 -1987.59 1588.05 0c532.29,0 1060.76,-128.22 1518.74,-399.63 544.58,-322.56 1089.15,-890.74 1089.15,-1873.15 0,-920.9 -478.69,-1505.6 -987.14,-1866.96 -502.72,-357.22 -1112.4,-532.12 -1729.19,-532.12z"/>
  <path class="fil0" d="M22349.43 10684.08c-826.91,0 -1498.69,-670.55 -1498.69,-1498.89 0,-827.1 671.79,-1497.52 1498.69,-1497.52 827.75,0 1497.81,669.54 1498.73,1495.73l0 3.59c-0.91,827.56 -670.97,1497.1 -1498.73,1497.1zm1498.73 -3815.98l0 468.52c-408.99,-333.35 -930.45,-532.77 -1498.73,-532.77 -1313.19,0 -2382.65,1068.16 -2382.65,2381.35 0,1314.46 1069.46,2382.72 2382.65,2382.72 568.28,0 1089.74,-199.52 1498.73,-532.74l0 532.97 1010.26 0 0 -4700.03 -1010.26 0z"/>
  <polygon class="fil0" points="25312.48,6803.84 26663.49,6803.84 28248.8,9837.74 29778.11,6803.84 30995.39,6803.84 30995.39,6811.96 27364.94,13569.67 26175.38,13569.67 27561.4,11058.31 "/>
 </g>
</svg>
